<svg width="616" height="616" viewBox="0 0 616 616" fill="none" xmlns="http://www.w3.org/2000/svg">
<circle cx="308" cy="308" r="308" fill="white"/>
<path d="M445.865 390.934L471.629 157.686C471.966 154.499 471.581 151.278 470.502 148.26C469.424 145.243 467.679 142.507 465.398 140.256C463.155 137.992 460.432 136.258 457.431 135.184C454.43 134.11 451.226 133.721 448.055 134.048L252.531 155.377C247.703 155.919 243.204 158.093 239.779 161.54C236.354 164.986 234.208 169.499 233.696 174.331L214.163 351.175C200.442 342.742 184.357 338.986 168.32 340.469C152.284 341.953 137.161 348.596 125.22 359.402C113.279 370.209 105.163 384.596 102.092 400.405C99.0197 416.214 101.157 432.593 108.182 447.085C115.208 461.577 126.743 473.4 141.057 480.781C155.371 488.161 171.693 490.702 187.573 488.02C203.453 485.339 218.036 477.581 229.133 465.91C240.231 454.239 247.245 439.284 249.123 423.289C249.748 419.641 250.155 415.959 250.341 412.263L274.231 195.978L426.292 179.507L409.686 329.846C395.958 321.408 379.863 317.652 363.818 319.142C347.772 320.632 332.644 327.287 320.703 338.108C308.763 348.929 300.656 363.331 297.599 379.153C294.542 394.974 296.701 411.361 303.751 425.851C310.801 440.341 322.362 452.152 336.698 459.511C351.033 466.871 367.369 469.381 383.253 466.664C399.136 463.947 413.709 456.151 424.784 444.445C435.859 432.74 442.837 417.758 444.67 401.748C445.27 398.168 445.668 394.558 445.865 390.934Z" fill="#FF4400"/>
</svg>
